<svg xmlns="http://www.w3.org/2000/svg" viewBox="0 0 1433.11 373.53"><defs><style>.cls-1{stroke:#000;}.cls-2{fill:#cc0921;stroke:#cc0921;}.cls-3{fill:#ffe114;stroke:#ffe114;}.cls-4{fill:#e99c23;stroke:#e99c23;}.cls-5{fill:#b70922;}.cls-6{fill:#cc081f;}.cls-7{fill:#770619;}.cls-8{fill:#a3071d;}</style></defs><g id="Layer_2" data-name="Layer 2"><g id="svg3015"><g id="layer3"><g id="g3039"><g id="g3032"><path id="path3967" class="cls-1" d="M1431.81.5c-.4,0-.94,0-1.63,0L1086.12,2.16c-3.57,0-4.21-.3-5.13,3.25l-57.15,244.9c-.88,3.75-1.13,4,1.65,1l89.41-90.18c2.25-2.28,2.11-2.67,3.78.34L1132.43,186c1.4,2.49,1.06,2.79-.62,4.91L982.09,370.69c-1.56,1.87-2,2,.68,1.9l324.91.44c2.3,0,2.39,0,3.13-2.28l77.59-249.06c1.32-4.23,1.69-4.64-1.75-1.35l-101.84,91.85c-1.44,1.29-1.28,1.27-2.16-.44l-6.72-14.81c-.78-1.72-.9-1.81.47-3.44L1431.46,2.41C1432.85.7,1433,.49,1431.81.5Zm-234,112.5c.87,0,.83.2-.32,1.38l-18.68,21.46c-.87,1-1.09,1.06-2.6,1l-34.59-.41c-2.17,0-2.64.33-.88-1.53l19.1-20.28a3.14,3.14,0,0,1,3.06-1.35l33.75-.28c.48,0,.87,0,1.16,0Zm42.22,125.53c.35,0,.75,0,1.28,0l12.37.6c2.68.14,2.7.07.56,1.9L1232.09,260c-1.5,1.25-2.17,1.33-4.07,1.25l-7.21-.31c-2.3-.12-2.31,0-.75-1.72l17.21-19.06c1.17-1.22,1.71-1.57,2.79-1.63Z"/><path id="path3836" class="cls-2" d="M1098.78,19.27l293.49-.41c2.86-.05,3-.26,1.15,2l-138.3,168.9c-1.44,1.83-1.07,1.88-.42,3.71l9.62,24.52c.94,2.26.72,2.1-1.58,2.12l-30.52.3c-2,0-2.21.18-3.28,1.52l-42.31,53.29c-1.8,2.17-1.56,1.94,1.09,2l46,1.12c2.15,0,2.74,0,4.2-1.31L1354.47,173c2.27-2,2.47-2.63,1.46.53l-57.24,179.84c-.66,2.21-.77,2.17-3,2.17H1021.6c-3.45,0-3.41.28-1.27-2.3l133.61-160.41c1.69-2,1.53-1.95.46-3.93l-15.68-29.22c-1.55-3.17-1.78-2.89,1.63-2.94l42.92-.73c2.7,0,3.21-.22,4.8-2.19L1234,97.43c1.66-2.06,1.63-1.91-1-1.9l-77.81.39c-3.22,0-3.45.51-5.28,2.4l-91.32,94.48c-4,4.25-3.16,3.7-2-1.29l38.85-169.84c.58-2.63.88-2.4,3.41-2.4Z"/></g><g id="g3015"><path id="path3944" class="cls-1" d="M13.9,11.5c-3.9,0-7.81.23-11.69.63-1.93.25-1.84.2-1.56,2.06L22.09,159.5c.41,2.08.4,2,2.31,2.38l7,1.31c2,.4,2.27.55,2.62,2.72L62.68,341.44c.47,3.44,1.21,3.67,4.09,3.44,10.87-.93,29.65-10.35,50.5-22,3-1.57,3.9-2.82,1.91.94L114.27,333c-.87,1.66-.71,1.63.82,1.94,24.61,4.92,52.88,4.36,79.43,6.37,2.23.09,2.25.21,2.79-1.87l1.71-6.69c.65-3,.67-2.52,1.88,0l7.44,15.53c.86,1.8,1,1.47,2.65.85l75.07-27.47c2.38-.91,2.14-.81,1-2.91l-6.32-11.87c-1-2.17-1.43-2,.85-2.32l2.62-.31c2-.33,2.1-.25,2.47-2.15l2.06-10.63c.71-4,.63-3.84,1.35,0l8.22,44.22c.42,2.94.63,2.61,3.37,2.16l30.44-5a3.57,3.57,0,0,1,3.75.87c37.82,28,76.47,26.61,116.16-10.56,1.26-1.2,1.75-.8,3-.25a50.22,50.22,0,0,0,15.37,3.22c2.05.21,2.17-.07,2,1.94L471,350.59c-.15,2,.11,1.76,2,1.75l84.32-.4c1.93,0,1.76-.15,2-1.91l2.09-13.81c.45-2.6.28-2.29,1.5-.22l8.25,14.06c1.05,1.71,1.28,1.67,3.09,1.69l57.85.38c3,0,2.77,0,2.84-2.72l1.56-62c.16-4.77.21-6.89.29-7,.09.28.23,2.9.65,7l4.1,55.88c.18,2.67.4,2.95,2.56,3.5,27.22,6.8,47.17,3.32,67,.53,2-.16,1.59.75,2.87.84l62.28,5.07c2.88.24,2.79.5,3.16-2.07l5.94-40.43c.56-4.18.5-4.08,1.06,0l4.81,34.9c.3,2.7.59,2.35,3.1,2l73.75-11.12c2.34-.46,2.23-.33,1.78-2.53l-2.31-11.19c-.47-2-.26-1.87,1.65-2.25l10.69-2.13c1.91-.41,1.86-.43,2,1.47l.25,4.47a10.07,10.07,0,0,1-.1,2.22L880,344.78c-.33,2.65-.36,2.57,2.25,2.5l104.75-3c3.18-.1,3.14-.06,3.72-2.93l23.34-115c.55-2.7.21-2.13-2.15-1.57l-41.81,9.94c-2.75.69-3,1.19-2.47-1.65L999.12,56.56c.38-2.47-.11-1.82-2.19-1.31l-73.59,18c-2.26.55-2.22.69-2.57,2.81L898.87,212c-.35,1.39,0,1.81-1.41,1.91l-1.81.12c-1.47,0-1-.61-1.06-1.94l8.84-130.31c.17-2.48.26-2.33-2.06-1.87L833.93,93c-2.35.54-2.36.34-2.53,2.5l-1.56,20.35c-.24,3.81-.21,3.59-1.1,0l-4.62-18.53c-.49-2.19-.56-1.89-2.53-1.66l-71.44,8.12c-2,.17-2,.28-2.38,2.13l-2.9,14c-.41,2.16-.59,1.78-2,.88-32.88-20.19-73.34-10.55-112.66-5.44a19.19,19.19,0,0,1-4.09.25l-52.63-.81c-2.31-.08-2.5-.39-2.59,1.84l-1.25,29.09c0,3.94-.19,3.12-1.81.07l-16.19-30.35c-.77-1.43-1.12-1.31-2.6-1.37l-48.78-1.72c-2.43,0-2.41-.25-2.72,2L489.31,175c-.27,2.09-.37,1.95-2.38,1.78l-5.5-.47c-2.18-.28-2.18,0-2-2.09L482,144.34a5.26,5.26,0,0,0-.87-3.9C443.9,81.53,369.33,91,329.84,121.75c-2.15,1.68-2,1.66-2.82-1l-7.18-24.91c-.72-2.63-.83-2.79-3.32-3.28L248.4,79.28c-2.17-.47-2.1-.6-2.5,1.41l-.72,3.53c-.47,2.37-.63,1.78-1.94.5C214.32,56.52,180.59,39.4,137,45.25c-2.35.34-2.36.48-2.53,2.84l-1.06,14.69c-.18,3-.22,3.14-2.28,1.31C90.6,28.33,51.62,11.26,13.9,11.5ZM99.34,178.66a5.71,5.71,0,0,1,1.5.62c9.52,4.95,9.32,19,3.43,23.41-1.65,1.22-2.11,1.32-2.4-1.25l-2.75-20.88C98.93,179.16,98.87,178.62,99.34,178.66Z"/><path id="path3047" class="cls-3" d="M150.68,59.72c-.86.07-.89.47-1,2l-1.19,16.72a4.64,4.64,0,0,0,.91,3.47c58.34,86.62,38.75,172.51-10.84,224.75a3.83,3.83,0,0,0-1.5,3.18l-.69,11.69c-.11,2.05,0,1.9,1.9,2.06l43.29,3.78c1.92.14,1.84.32,2-1.43l5.72-53.53c.39-3,.22-2.8,1.34-.16l23.44,55.31c.94,2.05.85,2,2.9,1.31l46.72-16.65c2.68-1,2.53-.84,1.06-3.16l-49.5-78.56c-1.12-1.85-1.18-2,.41-2.94,82.93-50.72,31.6-165.34-63.84-167.81A11,11,0,0,0,150.68,59.72Zm49.75,88a7.79,7.79,0,0,1,1.31.44c23.75,8.38,18.82,41.3-3.06,43.75-1.85.16-2.44.41-2.16-2l3.25-40.72C199.87,148.08,200,147.71,200.43,147.75Z"/><path id="path3035" class="cls-3" d="M19.9,29.72c-.49,0-.55.29-.44,1.44L35.24,146.59c.2,1.91.44,1.88,2.19,2.29l10.81,2.46c1.73.41,1.85.53,2.13,2.32L76.43,322.59c.38,2.5.8,2,2.72,1.54C209.4,291.67,202.27,42.42,21.27,29.81c-.63,0-1.08-.1-1.37-.09Zm63.44,127c.27,0,.6,0,1,0,49.55,1,56.36,60.42,11.47,72-1.94.6-2,.5-2.29-1.5L82.46,158.53C82.25,157,82.52,156.75,83.34,156.75Z"/><path id="path3041" class="cls-3" d="M381.08,246.81a179.66,179.66,0,0,1-.14-30.77c.17-2.51.93-2.39,2.79-2.38l27.5.18c2.45.06,2,1.16,1.37,2.84-3.41,9-7.45,16.94-8.06,30.29-.13,2.29-.41,2.72-2.17,2.8-6.2.29-12.4.8-18.6-.08-1.76-.21-2.48-.86-2.69-2.88Z"/><path id="path3045" class="cls-3" d="M260.12,97.53c-.45,0-.55.31-.81,1.16l-1.57,4.62a2.23,2.23,0,0,0,.19,2.25c31.66,59.67,9.78,92.21-16.12,122.72a4.19,4.19,0,0,0-1.16,2.56l-1.34,9.22a3.17,3.17,0,0,0,.75,2.94l28.53,44.56c.8,1.11.8,1.35,2.06,1.35h2.25c1.77,0,1.52-.19,1.75-1.75L278.37,255c.17-1.83.23-1.75,2-1.78l18.75-.25c1.78,0,1.89.22,2.15,2.16l8.91,64.47c.24,1.56.17,1.68,1.84,1.43l45.63-6.81c2.09-.27,1.87-.41,1.44-2.37L308.62,108,261.37,97.75A7.28,7.28,0,0,0,260.12,97.53Zm27.28,60.72a12.68,12.68,0,0,1,.47,2.66l6.9,46.72c.23,1.87.55,1.92-1.53,1.78l-9.75-.88c-1.74-.15-1.65-.05-1.5-1.9l5-45.75A11.23,11.23,0,0,1,287.4,158.25Z"/><path id="path3051" class="cls-3" d="M358.78,249,376.1,323c.64,2.65.4,2.78-1.62,3.44L365,329.19c-2.76.84-1.92,1,.05,2,26.26,13.18,48.89,4.53,69.73-14.83,2.08-1.86,1.08-2.16-.63-3.56q-20.5-16.69-28.6-43.71c-.62-2.3-.93-2.23-2.91-1.69-22.79,5.94-34.14-4.57-42.92-18.79-1.78-3-1.79-3.21-.94.42Z"/><path id="path3053" class="cls-3" d="M335.27,143.38c27-34.76,97.48-39,131.39.58,1.74,1.87,1.62,2.93,1.51,4.93l-2.09,25.81c-.25,2.69-.37,3.12-2.68,3.66a69,69,0,0,0-27,12.37c-2.52,1.87-3.68,1.88-6.2-.43-25.52-23.43-76-8.68-75.49,37.22.08,4.18.48,5.25-.81,0l-19.65-79.75c-.53-2.5-.06-3.1,1-4.41Z"/><path id="path3055" class="cls-4" d="M538.52,251.76c0,33.08-26.54,59.91-59.32,59.94s-59.38-26.78-59.41-59.86v-.08c0-33.08,26.54-59.92,59.32-59.95s59.38,26.78,59.41,59.86Z"/><path id="path3828" class="cls-3" d="M505.44,177.58l4.42-48.06c.18-2.16,1.25-3.15,3.24-3l28.07.83c2.25.19,2.09.58,2.93,2.31L579.71,203c1.35,2.82,1.28,3.13,1.45-.11l3.7-70.35c.15-2.66.2-2.43,2.67-2.35l35,1.17c2.5,0,2.24.24,2.23,2.58l-1.44,201.85c0,2.17,0,2-2,2l-38.91.13c-1.63,0-1.62-.26-2.28-1.51L554.5,286.81c-.93-1.88-.86-2-1.1.13l-5.65,50c-.25,1.82-.5,1.59-2.17,1.61l-56.09.41c-2.24,0-2.19.15-2.05-1.9l.46-7.88c.21-2.89,1.05-2.75,3.23-3.3,83.66-20.82,79.67-116.45,16.16-145-2-1-2-1.18-1.85-3.29Z"/><path id="path3832" class="cls-2" d="M848.58,107.28l35.9-7.59c4-.8,4-1.2,3.7,2.81l-8.37,126.71c-.1,2.37-.1,2.14,2.13,1.85l47.1-6.13c2.08-.21,1.87-.18,1.56,1.81l-11,70.89c-.38,2.43-.79,2.06-3,2.33l-48.71,4.91c-2.29.21-2.28.45-2.71-1.62l-25-121.72a14.77,14.77,0,0,1-.29-4.43l4.95-65.21c.3-3.84.27-3.86,3.79-4.61Z"/><path id="path3834" class="cls-2" d="M936.15,86.75l43-9.89c2.11-.51,2.27-.85,1.9,1.36l-29.3,174.6c-.47,2.39-.33,2.27,2.07,1.73l40.77-9.13c2.38-.48,2.59-1,2.06,1.57l-16.14,80.32c-.39,2.13-.61,2-2.66,2l-79.44,1.58c-2.15,0-2.07.17-1.66-1.85l2.1-10.18c.47-2.11.51-2.11,2.52-2.37l27.87-3.62c2.14-.29,2.13-.28,2.44-2.27l16-101.81c.39-2.45.22-2-2-1.67l-28,4.3c-2.48.44-2.22.36-1.87-2L934,89.13c.35-1.94.4-2,2.19-2.38Z"/><path id="path3940" class="cls-2" d="M812,113.38c-.31,0-.71.05-1.25.09l-46.9,5.06c-2.47.27-2.88,0-3.25,2.66L758.9,133.5a3.72,3.72,0,0,0,.94,3.66c31.7,43.73,12.8,90.48-7.63,109.12-1.74,1.55-2,1.69-.22,3.94,17.59,23.53,25.41,49.2-2.37,82.66-1.28,1.51-2.19,2,.56,2.12l16.19.91c2.51.14,2.45.23,2.78-2.41l7.69-63.94c.26-2.22.15-2.15,2.59-2.18l15.13-.22c2.56,0,2.58-.18,2.87,2.53l7,59c.39,3.24.28,2.89,3.72,2.4l42.81-7c2.58-.42,2.46-.39,1.94-3l-39.53-205.9C813.07,113.58,812.94,113.34,812,113.38ZM787.71,186.5a15.39,15.39,0,0,1,.56,3.44L793,224c.33,2.35.63,2.46-1.9,2.31l-5.6-.31c-2.59-.21-2.47,0-2.19-2.72l3.94-33.37A16.26,16.26,0,0,1,787.71,186.5Z"/><path id="path3942" class="cls-2" d="M696,125c-2.47,0-5,.17-7.62.41l-46.34,4.18c-3.77.48-3.73.12-3.82,3.63l-1.62,67.66c0,2.39-.11,2.28,2.19,2.37l2.68.13c2.45.09,2.43.15,2.66,2.56l11.94,126.25c.21,2.3.52,2.09,2.68,2.19l23.16.78c90,3.13,81.65-74.4,40.22-89.57-4.42-1.37-3.57-1.08,0-2.18C781.84,225.05,772.6,124.43,696,125Zm-10.15,58.22c.35,0,.8.07,1.34.12,24.61,3,21.47,33.43.31,32.1-1.67-.17-1.77-.2-1.84-1.85l-1-28C684.58,183.56,684.82,183.18,685.87,183.22ZM689,265.34c.28,0,.63.07,1.1.13,18.67,1.92,17.45,27.34-.16,25-1.58-.26-1.83-.22-1.81-2.25v-21.1C688.12,265.67,688.17,265.33,689,265.34Z"/></g></g></g><polyline class="cls-5" points="504.3 252.52 479.15 210.77 478.6 212.64 478.6 266.84 479.15 267.39 504.3 252.52"/><polyline class="cls-6" points="453.99 252.52 479.15 267.39 479.15 241.08 479.15 210.77 453.99 252.52"/><polyline class="cls-5" points="504.32 257.29 479.15 272.15 478.84 272.53 478.84 291.83 479.15 292.74 504.32 257.29"/><polyline class="cls-6" points="453.99 257.29 479.15 292.74 479.15 272.15 453.99 257.29"/><polyline class="cls-7" points="504.3 252.52 479.15 241.08 479.15 267.39 504.3 252.52"/><polyline class="cls-8" points="453.99 252.52 479.15 267.39 479.15 241.08 453.99 252.52"/></g></g></svg>